#define anchor.xbm_width 16
#define anchor.xbm_height 16
static char anchor.xbm_bits[] = {
   0x00, 0x00, 0xe0, 0x07, 0xe0, 0x07, 0x80, 0x05, 0x80, 0x05, 0x80, 0x05,
   0x80, 0x03, 0x80, 0x01, 0x9e, 0x79, 0x8e, 0x71, 0x8e, 0x71, 0x8a, 0x51,
   0x90, 0x09, 0xe0, 0x07, 0x80, 0x01, 0x00, 0x00};
