#define cross-ref.xbm_width 16
#define cross-ref.xbm_height 16
static char cross-ref.xbm_bits[] = {
   0x00, 0x01, 0x80, 0x01, 0xc0, 0x01, 0xe0, 0x01, 0xf0, 0x01, 0xf8, 0x61,
   0xfc, 0x71, 0xfe, 0x79, 0xff, 0x7f, 0x00, 0x7f, 0x00, 0x7f, 0x80, 0x7f,
   0xc0, 0x7f, 0xe0, 0x7f, 0xe0, 0x7f, 0x00, 0x00};
