#define index_width 41
#define index_height 16
static char index_bits[] = {
 0x00,0x00,0x00,0x00,0x00,0x00,0x00,0x00,0x00,0x00,0x00,0x00,0x00,0x00,0x00,
 0x00,0x00,0x00,0x00,0x00,0x60,0x00,0x00,0x00,0xf0,0x01,0x40,0x00,0x00,0x00,
 0x40,0x00,0x40,0x00,0x00,0x00,0x40,0x74,0x78,0x9c,0x3b,0x00,0x40,0x98,0x44,
 0x22,0x0a,0x00,0x40,0x88,0x44,0x3e,0x04,0x00,0x40,0x88,0x44,0x02,0x0a,0x00,
 0x40,0x88,0x44,0x22,0x11,0x00,0xf0,0x9d,0xb9,0x9c,0x31,0x00,0x00,0x00,0x00,
 0x00,0x00,0x00,0x00,0x00,0x00,0x00,0x00,0x00,0x00,0x00,0x00,0x00,0x00,0x00,
 0x00,0x00,0x00,0x00,0x00,0x00};
