#define next_page_width 68
#define next_page_height 16
static char next_page_bits[] = {
 0x00,0x00,0x00,0x00,0x00,0x00,0x00,0x00,0x00,0x00,0x00,0x00,0x00,0x00,0x00,
 0x00,0x00,0x00,0x00,0x00,0x00,0x00,0x00,0x00,0x00,0x00,0x00,0x98,0x03,0x00,
 0x04,0xc0,0x07,0x00,0x00,0x00,0x30,0x01,0x00,0x04,0x80,0x0c,0x00,0x00,0x00,
 0x30,0x71,0xee,0x3e,0x80,0xc8,0xc3,0xe5,0x00,0x50,0x89,0x28,0x04,0x80,0x0c,
 0x24,0x12,0x01,0x50,0xf9,0x10,0x04,0x80,0x87,0x27,0xf2,0x01,0x90,0x09,0x28,
 0x04,0x80,0x40,0x24,0x12,0x00,0x90,0x89,0x44,0x44,0x80,0x40,0x24,0x12,0x01,
 0x38,0x71,0xc6,0x38,0xc0,0x83,0xcb,0xe3,0x00,0x00,0x00,0x00,0x00,0x00,0x00,
 0x00,0x02,0x00,0x00,0x00,0x00,0x00,0x00,0x00,0x00,0x02,0x00,0x00,0x00,0x00,
 0x00,0x00,0x00,0xc0,0x01,0x00,0x00,0x00,0x00,0x00,0x00,0x00,0x00,0x00,0x00,
 0x00,0x00,0x00,0x00,0x00,0x00,0x00,0x00,0x00};
