#define previous_page_width 98
#define previous_page_height 16
static char previous_page_bits[] = {
 0x00,0x00,0x00,0x00,0x00,0x00,0x00,0x00,0x00,0x00,0x00,0x00,0x00,0x00,0x00,
 0x00,0x00,0x00,0x00,0x00,0x00,0x00,0x00,0x00,0x00,0x00,0x00,0x00,0x00,0x00,
 0x08,0x00,0x00,0x00,0x00,0x00,0x00,0x00,0x00,0xf0,0x01,0x00,0x00,0x00,0x00,
 0x00,0x00,0xf8,0x00,0x00,0x00,0x00,0x20,0x03,0x00,0x00,0x00,0x00,0x00,0x00,
 0x90,0x01,0x00,0x00,0x00,0x20,0xd2,0x71,0xee,0x0e,0xce,0x8c,0x03,0x10,0x79,
 0xb8,0x1c,0x00,0x20,0x23,0x88,0x44,0x08,0x91,0x48,0x04,0x90,0x81,0x44,0x22,
 0x00,0xe0,0x21,0xf8,0x44,0x08,0x91,0x88,0x03,0xf0,0xf0,0x44,0x3e,0x00,0x20,
 0x20,0x08,0x28,0x08,0x91,0x08,0x04,0x10,0x88,0x44,0x02,0x00,0x20,0x20,0x88,
 0x38,0x08,0x91,0x48,0x04,0x10,0x88,0x44,0x22,0x00,0xf0,0xf0,0x70,0x10,0x3e,
 0x0e,0x97,0x03,0x78,0x70,0x79,0x1c,0x00,0x00,0x00,0x00,0x00,0x00,0x00,0x00,
 0x00,0x00,0x00,0x40,0x00,0x00,0x00,0x00,0x00,0x00,0x00,0x00,0x00,0x00,0x00,
 0x00,0x40,0x00,0x00,0x00,0x00,0x00,0x00,0x00,0x00,0x00,0x00,0x00,0x00,0x38,
 0x00,0x00,0x00,0x00,0x00,0x00,0x00,0x00,0x00,0x00,0x00,0x00,0x00,0x00,0x00,
 0x00,0x00,0x00,0x00,0x00,0x00,0x00,0x00,0x00,0x00,0x00,0x00,0x00};
