#define agent_width 121
#define agent_height 81
#define agent_x_hot 0
#define agent_y_hot 0
static char agent_bits[] = {
   0x00, 0x00, 0x00, 0x00, 0x00, 0x00, 0xf8, 0xff, 0x3f, 0x00, 0x00, 0x00, 
   0x00, 0x00, 0x00, 0xfe, 0x00, 0x00, 0x00, 0x00, 0x00, 0xf8, 0xff, 0xff, 
   0xff, 0x3f, 0x00, 0x00, 0x00, 0x00, 0x00, 0xfe, 0x00, 0x00, 0x00, 0x00, 
   0xc0, 0xff, 0xff, 0xff, 0xff, 0xff, 0x07, 0x00, 0x00, 0x00, 0x00, 0xfe, 
   0x00, 0x00, 0x00, 0x00, 0xf8, 0xff, 0xff, 0xff, 0xff, 0xff, 0x3f, 0x00, 
   0x00, 0x00, 0x00, 0xfe, 0x00, 0x00, 0x00, 0x80, 0xff, 0xff, 0xff, 0xff, 
   0xff, 0xff, 0xff, 0x03, 0x00, 0x00, 0x00, 0xfe, 0x00, 0x00, 0x00, 0xe0, 
   0xff, 0xff, 0xff, 0xff, 0xff, 0xff, 0xff, 0x0f, 0x00, 0x00, 0x00, 0xfe, 
   0x00, 0x00, 0x00, 0xfc, 0xff, 0xff, 0xff, 0xff, 0xff, 0xff, 0xff, 0x7f, 
   0x00, 0x00, 0x00, 0xfe, 0x00, 0x00, 0x00, 0xff, 0xff, 0xff, 0xff, 0xff, 
   0xff, 0xff, 0xff, 0xff, 0x01, 0x00, 0x00, 0xfe, 0x00, 0x00, 0xc0, 0xff, 
   0xff, 0xff, 0xff, 0xff, 0xff, 0xff, 0xff, 0xff, 0x07, 0x00, 0x00, 0xfe, 
   0x00, 0x00, 0xf0, 0xff, 0xff, 0xff, 0xff, 0xff, 0xff, 0xff, 0xff, 0xff, 
   0x1f, 0x00, 0x00, 0xfe, 0x00, 0x00, 0xfc, 0xff, 0xff, 0xff, 0xff, 0xff, 
   0xff, 0xff, 0xff, 0xff, 0x7f, 0x00, 0x00, 0xfe, 0x00, 0x00, 0xff, 0xff, 
   0xff, 0xff, 0xff, 0xff, 0xff, 0xff, 0xff, 0xff, 0xff, 0x01, 0x00, 0xfe, 
   0x00, 0x80, 0xff, 0xff, 0xff, 0xff, 0xff, 0xff, 0xff, 0xff, 0xff, 0xff, 
   0xff, 0x03, 0x00, 0xfe, 0x00, 0xe0, 0xff, 0xff, 0xff, 0xff, 0xff, 0xff, 
   0xff, 0xff, 0xff, 0xff, 0xff, 0x0f, 0x00, 0xfe, 0x00, 0xf0, 0xff, 0xff, 
   0xff, 0xff, 0xff, 0xff, 0xff, 0xff, 0xff, 0xff, 0xff, 0x1f, 0x00, 0xfe, 
   0x00, 0xf8, 0xff, 0xff, 0xff, 0xff, 0xff, 0xff, 0xff, 0xff, 0xff, 0xff, 
   0xff, 0x3f, 0x00, 0xfe, 0x00, 0xfc, 0xff, 0xff, 0xff, 0xff, 0xff, 0xc7, 
   0xff, 0xff, 0xc7, 0xff, 0xff, 0x7f, 0x00, 0xfe, 0x00, 0xfe, 0xff, 0xff, 
   0xff, 0xff, 0xff, 0x83, 0xff, 0xff, 0x83, 0xff, 0xff, 0xff, 0x00, 0xfe, 
   0x00, 0xff, 0xff, 0xff, 0xff, 0xff, 0xff, 0x83, 0xff, 0xff, 0x83, 0xff, 
   0xff, 0xff, 0x01, 0xfe, 0x80, 0xff, 0xff, 0xff, 0xff, 0xff, 0xff, 0x01, 
   0xff, 0xff, 0x01, 0xff, 0xff, 0xff, 0x03, 0xfe, 0xc0, 0xff, 0xff, 0xff, 
   0xff, 0xff, 0xff, 0x01, 0xff, 0xff, 0x01, 0xff, 0xff, 0xff, 0x07, 0xfe, 
   0xe0, 0xff, 0xff, 0xff, 0xff, 0xff, 0xff, 0x01, 0xff, 0xff, 0x01, 0xff, 
   0xff, 0xff, 0x0f, 0xfe, 0xe0, 0xff, 0xff, 0xff, 0xff, 0xff, 0xff, 0x01, 
   0xff, 0xff, 0x01, 0xff, 0xff, 0xff, 0x0f, 0xfe, 0xf0, 0xff, 0xff, 0xff, 
   0xff, 0xff, 0xff, 0x00, 0xfe, 0xff, 0x00, 0xfe, 0xff, 0xff, 0x1f, 0xfe, 
   0xf8, 0xff, 0xff, 0xff, 0xff, 0xff, 0xff, 0x00, 0xfe, 0xff, 0x00, 0xfe, 
   0xff, 0xff, 0x3f, 0xfe, 0xf8, 0xff, 0xff, 0xff, 0xff, 0xff, 0xff, 0x00, 
   0xfe, 0xff, 0x00, 0xfe, 0xff, 0xff, 0x3f, 0xfe, 0xfc, 0xff, 0xff, 0xff, 
   0xff, 0xff, 0xff, 0x00, 0xfe, 0xff, 0x00, 0xfe, 0xff, 0xff, 0x7f, 0xfe, 
   0xfc, 0xff, 0xff, 0xff, 0xff, 0xff, 0xff, 0x00, 0xfe, 0xff, 0x00, 0xfe, 
   0xff, 0xff, 0x7f, 0xfe, 0xfe, 0xff, 0xff, 0xff, 0xff, 0xff, 0xff, 0xe0, 
   0xfe, 0xff, 0xe0, 0xfe, 0xff, 0xff, 0xff, 0xfe, 0xfe, 0xff, 0xff, 0xff, 
   0xff, 0xff, 0xff, 0xa0, 0xfe, 0xff, 0xa0, 0xfe, 0xff, 0xff, 0xff, 0xfe, 
   0xfe, 0xff, 0xff, 0xff, 0xff, 0xff, 0xff, 0x50, 0xff, 0xff, 0x50, 0xff, 
   0xff, 0xff, 0xff, 0xfe, 0xfe, 0xff, 0xff, 0xff, 0xff, 0xff, 0xff, 0xb0, 
   0xff, 0xff, 0xb0, 0xff, 0xff, 0xff, 0xff, 0xfe, 0xff, 0xff, 0xff, 0xff, 
   0xff, 0xff, 0xff, 0x50, 0xff, 0xff, 0x50, 0xff, 0xff, 0xff, 0xff, 0xff, 
   0xff, 0xff, 0xff, 0xff, 0xff, 0xff, 0xff, 0xb0, 0xff, 0xff, 0xb0, 0xff, 
   0xff, 0xff, 0xff, 0xff, 0xff, 0xff, 0xff, 0xff, 0xff, 0xff, 0xff, 0x51, 
   0xff, 0xff, 0x51, 0xff, 0xff, 0xff, 0xff, 0xff, 0xff, 0xff, 0xff, 0xff, 
   0xff, 0xff, 0xff, 0xa1, 0xff, 0xff, 0xa1, 0xff, 0xff, 0xff, 0xff, 0xff, 
   0xff, 0xff, 0xff, 0xff, 0xff, 0xff, 0xff, 0xe1, 0xff, 0xff, 0xe1, 0xff, 
   0xff, 0xff, 0xff, 0xff, 0xff, 0xff, 0xff, 0xff, 0xff, 0xff, 0xff, 0x01, 
   0xff, 0xff, 0x01, 0xff, 0xff, 0xff, 0xff, 0xff, 0xff, 0xff, 0xff, 0xff, 
   0xff, 0xff, 0xff, 0x83, 0xff, 0xff, 0x83, 0xff, 0xff, 0xff, 0xff, 0xff, 
   0xff, 0xff, 0xff, 0xff, 0xff, 0xff, 0xff, 0x83, 0xff, 0xff, 0x83, 0xff, 
   0xff, 0xff, 0xff, 0xff, 0xff, 0xff, 0xff, 0xff, 0xff, 0xff, 0xff, 0xc7, 
   0xff, 0xff, 0xc7, 0xff, 0xff, 0xff, 0xff, 0xff, 0xfe, 0xff, 0xff, 0xff, 
   0xff, 0xff, 0xff, 0xff, 0xff, 0xff, 0xff, 0xff, 0xff, 0xff, 0xff, 0xfe, 
   0xfe, 0xff, 0xff, 0xff, 0xff, 0xff, 0xff, 0xff, 0xff, 0xff, 0xff, 0xff, 
   0xff, 0xff, 0xff, 0xfe, 0xfe, 0xff, 0xff, 0xff, 0xff, 0xff, 0xff, 0xff, 
   0xff, 0xff, 0xff, 0xff, 0xff, 0xff, 0xff, 0xfe, 0xfe, 0xff, 0xff, 0xff, 
   0xff, 0xff, 0xff, 0xff, 0xff, 0xff, 0xff, 0xff, 0xff, 0xff, 0xff, 0xfe, 
   0xfc, 0xff, 0xff, 0xff, 0xff, 0xff, 0xff, 0xff, 0xff, 0xff, 0xff, 0xff, 
   0xff, 0xff, 0x7f, 0xfe, 0xfc, 0xff, 0xff, 0xff, 0xff, 0xff, 0xff, 0xff, 
   0xff, 0xff, 0xff, 0xff, 0xff, 0xff, 0x7f, 0xfe, 0xf8, 0xff, 0xff, 0xff, 
   0xf3, 0xff, 0xff, 0xff, 0xff, 0xff, 0xff, 0xff, 0xff, 0xff, 0x3f, 0xfe, 
   0xf8, 0xff, 0xff, 0xff, 0xe1, 0xff, 0xff, 0xff, 0xff, 0xff, 0xff, 0xff, 
   0xff, 0xff, 0x3f, 0xfe, 0xf0, 0xff, 0xff, 0x7f, 0xc0, 0xff, 0xff, 0xff, 
   0xff, 0xff, 0xff, 0xff, 0xff, 0xff, 0x1f, 0xfe, 0xe0, 0xff, 0xff, 0x3f, 
   0x80, 0xff, 0xff, 0xff, 0xff, 0xff, 0xff, 0xff, 0xff, 0xff, 0x0f, 0xfe, 
   0xe0, 0xff, 0xff, 0x3f, 0x00, 0xff, 0xff, 0xff, 0xff, 0xff, 0xff, 0xff, 
   0xff, 0xff, 0x0f, 0xfe, 0xc0, 0xff, 0xff, 0x7f, 0x00, 0xfe, 0xff, 0xff, 
   0xff, 0xff, 0xff, 0xff, 0xff, 0xff, 0x07, 0xfe, 0x80, 0xff, 0xff, 0xff, 
   0x00, 0xfc, 0xff, 0xff, 0xff, 0xff, 0xff, 0xff, 0xff, 0xff, 0x03, 0xfe, 
   0x00, 0xff, 0xff, 0xff, 0x01, 0xf0, 0xff, 0xff, 0xff, 0xff, 0xff, 0xff, 
   0xff, 0xff, 0x07, 0xfe, 0x00, 0xfe, 0xff, 0xff, 0x03, 0xe0, 0xff, 0xff, 
   0xff, 0xff, 0xff, 0xff, 0xff, 0xff, 0x1a, 0xfe, 0x00, 0xfc, 0xff, 0xff, 
   0x07, 0x80, 0xff, 0xff, 0xff, 0xff, 0xff, 0xff, 0xff, 0xff, 0x15, 0xfe, 
   0x00, 0xf8, 0xff, 0xff, 0x0f, 0x00, 0xfe, 0xff, 0xff, 0xff, 0xfe, 0xff, 
   0xff, 0xbf, 0x1b, 0xfe, 0x00, 0xff, 0xff, 0xff, 0x1f, 0x00, 0xf8, 0xff, 
   0xff, 0x3f, 0xfc, 0xff, 0xff, 0x5f, 0x7d, 0xfe, 0xc0, 0xea, 0xff, 0xff, 
   0x7f, 0x00, 0xc0, 0xff, 0xff, 0x07, 0xfc, 0xff, 0xff, 0xaf, 0xaa, 0xff, 
   0x40, 0xfd, 0xff, 0xff, 0xff, 0x00, 0x00, 0xfc, 0x7f, 0x00, 0xf8, 0xff, 
   0xff, 0x57, 0x5d, 0xff, 0xc0, 0xae, 0xff, 0xff, 0xff, 0x03, 0x00, 0x00, 
   0x00, 0x00, 0xf8, 0xff, 0xff, 0xab, 0xba, 0xff, 0xf0, 0x55, 0xfd, 0xff, 
   0xff, 0x07, 0x00, 0x00, 0x00, 0x00, 0xf0, 0xff, 0x7f, 0x55, 0x75, 0xfe, 
   0xac, 0xaa, 0xfa, 0xff, 0xff, 0x1f, 0x00, 0x00, 0x00, 0x00, 0xf0, 0xff, 
   0xbf, 0xaa, 0xba, 0xff, 0xd4, 0x55, 0xf5, 0xff, 0xff, 0x7f, 0x00, 0x00, 
   0x00, 0x00, 0xfc, 0xff, 0x77, 0x55, 0x5d, 0xff, 0xec, 0xaa, 0x6a, 0xff, 
   0xff, 0xff, 0x03, 0x00, 0x00, 0x80, 0xff, 0xff, 0xa1, 0xaa, 0xaa, 0xff, 
   0x70, 0x55, 0x55, 0xfc, 0xff, 0xff, 0x1f, 0x00, 0x00, 0xf0, 0xff, 0x7f, 
   0x40, 0x55, 0x7d, 0xfe, 0xec, 0xaa, 0x6a, 0xe0, 0xff, 0xff, 0xff, 0x03, 
   0x80, 0xff, 0xff, 0x0f, 0x80, 0xab, 0x1b, 0xfe, 0xd4, 0x55, 0x75, 0x80, 
   0xff, 0xff, 0xff, 0xff, 0xff, 0xff, 0xff, 0x03, 0x00, 0xfe, 0x15, 0xfe, 
   0xac, 0xaa, 0x2a, 0x00, 0xf8, 0xff, 0xff, 0xff, 0xff, 0xff, 0xff, 0x01, 
   0x00, 0xb0, 0x1a, 0xfe, 0xf0, 0x55, 0x15, 0x00, 0xc0, 0xff, 0xff, 0xff, 
   0xff, 0xff, 0x57, 0x03, 0x00, 0xc0, 0x07, 0xfe, 0xc0, 0xae, 0x0e, 0x00, 
   0xe0, 0xfa, 0xff, 0xff, 0xff, 0xbf, 0xaa, 0x0e, 0x00, 0x00, 0x00, 0xfe, 
   0x40, 0xfd, 0x03, 0x00, 0x60, 0x55, 0xfd, 0xff, 0x7f, 0x55, 0x55, 0x0d, 
   0x00, 0x00, 0x00, 0xfe, 0xc0, 0x6a, 0x00, 0x00, 0xb0, 0xaa, 0xaa, 0x1a, 
   0xb0, 0xaa, 0xaa, 0x1a, 0x00, 0x00, 0x00, 0xfe, 0x00, 0x1f, 0x00, 0x00, 
   0x50, 0x55, 0x55, 0x15, 0x50, 0x55, 0x55, 0x15, 0x00, 0x00, 0x00, 0xfe, 
   0x00, 0x00, 0x00, 0x00, 0xb0, 0xaa, 0xaa, 0x1a, 0xb0, 0xaa, 0xaa, 0x1a, 
   0x00, 0x00, 0x00, 0xfe, 0x00, 0x00, 0x00, 0x00, 0x60, 0x55, 0x55, 0x0d, 
   0x60, 0x55, 0x55, 0x0d, 0x00, 0x00, 0x00, 0xfe, 0x00, 0x00, 0x00, 0x00, 
   0xe0, 0xaa, 0xaa, 0x0e, 0xe0, 0xaa, 0xaa, 0x0e, 0x00, 0x00, 0x00, 0xfe, 
   0x00, 0x00, 0x00, 0x00, 0x80, 0x55, 0x55, 0x03, 0x80, 0x55, 0x55, 0x03, 
   0x00, 0x00, 0x00, 0xfe, 0x00, 0x00, 0x00, 0x00, 0x00, 0xaf, 0xea, 0x01, 
   0x00, 0xaf, 0xea, 0x01, 0x00, 0x00, 0x00, 0xfe, 0x00, 0x00, 0x00, 0x00, 
   0x00, 0xf0, 0x1f, 0x00, 0x00, 0xf0, 0x1f, 0x00, 0x00, 0x00, 0x00, 0xfe};
